<?xml version="1.0" encoding="utf-8"?>
<!-- Generator: Adobe Illustrator 15.0.2, SVG Export Plug-In . SVG Version: 6.00 Build 0)  -->
<!DOCTYPE svg PUBLIC "-//W3C//DTD SVG 1.1//EN" "http://www.w3.org/Graphics/SVG/1.1/DTD/svg11.dtd">
<svg version="1.1" id="Layer_1" xmlns="http://www.w3.org/2000/svg" xmlns:xlink="http://www.w3.org/1999/xlink" x="0px" y="0px"
	 width="384px" height="384.016px" viewBox="0 0 384 384.016" enable-background="new 0 0 384 384.016" xml:space="preserve">
<path opacity="0.1" d="M192,176.517c-8.56,0-15.5,6.94-15.5,15.5s6.94,15.5,15.5,15.5c8.561,0,15.5-6.94,15.5-15.5
	S200.561,176.517,192,176.517z M192,204.61c-6.944,0-12.594-5.649-12.594-12.594c0-1.453,0.25-2.849,0.706-4.148l4.926,2.193
	c-0.133,0.659-0.205,1.347-0.205,2.056c0,6.189,4.619,7.932,7.524,7.932c1.714,0,3.197-0.553,4.357-1.364
	c0.221-0.158,0.421-0.317,0.604-0.479l-2.26-2.746c-0.066,0.076-0.135,0.148-0.206,0.213c-0.879,0.833-1.845,0.833-2.061,0.833
	c-2.365,0-3.354-2.494-3.368-4.493l13.576,6.045c0.016,0.002,0.029,0.002,0.042,0.005C200.901,201.962,196.754,204.61,192,204.61z
	 M204.136,195.235l-14.001-6.25c0.505-0.915,1.309-1.603,2.513-1.603c0.697,0,1.25,0.231,1.686,0.523
	c0.182,0.13,0.339,0.261,0.471,0.393l2.524-2.598c-1.695-1.458-3.623-1.718-4.882-1.718c-2.962,0-5.058,1.28-6.293,3.225
	l-4.682-2.088c2.253-3.429,6.131-5.698,10.53-5.698c6.944,0,12.595,5.649,12.595,12.594c0,1.125-0.15,2.213-0.429,3.251
	C204.155,195.255,204.147,195.246,204.136,195.235z"/>
</svg>
